<svg width="101" height="14" viewBox="0 0 101 14" fill="none" xmlns="http://www.w3.org/2000/svg">
    <path d="M6.93555 4.86523H12.7266C13.0977 5.4056 13.2832 6.06315 13.2832 6.83789C13.2832 7.60612 13.1237 8.23112 12.8047 8.71289H12.4043V11.6426C11.1217 12.7559 9.42904 13.3125 7.32617 13.3125C6.04362 13.3125 4.9043 13.0846 3.9082 12.6289C2.82096 12.1406 1.97786 11.4277 1.37891 10.4902C0.721354 9.46159 0.392578 8.19857 0.392578 6.70117C0.392578 4.57227 1.0306 2.92513 2.30664 1.75977C3.51758 0.646484 5.1582 0.0898438 7.22852 0.0898438C8.25065 0.0898438 9.21419 0.242839 10.1191 0.548828C11.0306 0.854818 11.75 1.23568 12.2773 1.69141C12.2773 2.08203 12.2285 2.56055 12.1309 3.12695C12.0397 3.69336 11.9225 4.1263 11.7793 4.42578H6.63281C6.42448 4.64714 6.22591 4.96615 6.03711 5.38281C5.85482 5.79948 5.76367 6.27799 5.76367 6.81836C5.76367 7.56055 5.94922 8.14323 6.32031 8.56641C6.64583 8.95052 7.0625 9.14258 7.57031 9.14258C7.77865 9.14258 7.88281 9.07096 7.88281 8.92773V8.70312H7.77539C7.3457 8.70312 6.98763 8.53711 6.70117 8.20508C6.42122 7.86654 6.28125 7.38477 6.28125 6.75977C6.28125 5.97852 6.49935 5.34701 6.93555 4.86523ZM20.4219 6.26172C20.4219 5.61068 20.3926 5.16471 20.334 4.92383C20.2754 4.67643 20.168 4.55273 20.0117 4.55273C19.9141 4.55273 19.8262 4.58529 19.748 4.65039C19.7611 4.76758 19.7806 4.92383 19.8066 5.11914C19.8327 5.31445 19.8457 5.73112 19.8457 6.36914V7.00391C19.8457 7.44661 19.8359 7.76888 19.8164 7.9707C19.7969 8.17253 19.7806 8.34505 19.7676 8.48828C19.7611 8.56641 19.7546 8.64453 19.748 8.72266C19.8262 8.78776 19.9141 8.82031 20.0117 8.82031C20.168 8.82031 20.2754 8.69987 20.334 8.45898C20.3926 8.21159 20.4219 7.76237 20.4219 7.11133V6.26172ZM20.0312 13.3125C18.8724 13.3125 17.8079 13.0749 16.8379 12.5996C15.8743 12.1178 15.0964 11.3854 14.5039 10.4023C13.9115 9.41276 13.6152 8.17904 13.6152 6.70117C13.6152 4.55924 14.2598 2.88607 15.5488 1.68164C16.6947 0.620443 18.1693 0.0898438 19.9727 0.0898438C21.9323 0.0898438 23.4818 0.698568 24.6211 1.91602C25.7669 3.12695 26.3398 4.72201 26.3398 6.70117C26.3398 8.90169 25.7279 10.5814 24.5039 11.7402C23.3906 12.7884 21.8997 13.3125 20.0312 13.3125ZM32.3359 6.05664C32.362 6.07617 32.4368 6.08594 32.5605 6.08594C32.6842 6.08594 32.7786 6.03711 32.8438 5.93945C32.9089 5.8418 32.9414 5.68229 32.9414 5.46094V5.10938C32.9414 4.875 32.9121 4.70898 32.8535 4.61133C32.8014 4.50716 32.7103 4.45508 32.5801 4.45508C32.4564 4.45508 32.3717 4.4681 32.3262 4.49414C32.3327 4.52669 32.3359 4.58203 32.3359 4.66016V6.05664ZM37.375 8.2832L39.0645 10.0117C38.9473 11.0273 38.625 11.8086 38.0977 12.3555C37.5768 12.9023 36.8542 13.1758 35.9297 13.1758C35.2331 13.1758 34.6276 13.0098 34.1133 12.6777C33.4557 12.2611 32.9642 11.597 32.6387 10.6855L32.2871 9.72852C32.0137 9.72201 31.6686 9.6862 31.252 9.62109C31.1999 9.67318 31.1738 9.74479 31.1738 9.83594C31.1738 10.0117 31.4375 10.1159 31.9648 10.1484L32.5215 11.5547V12.3848C31.7728 12.9121 30.8125 13.1758 29.6406 13.1758C28.8008 13.1758 28.1302 13.0033 27.6289 12.6582C27.1276 12.3132 26.877 11.8118 26.877 11.1543V1.87695C26.877 1.59049 27.1406 1.3138 27.668 1.04688C28.1953 0.773438 28.8854 0.555339 29.7383 0.392578C30.5911 0.223307 31.444 0.138672 32.2969 0.138672C34.25 0.138672 35.7767 0.539062 36.877 1.33984C38.0358 2.17969 38.6152 3.36133 38.6152 4.88477C38.6152 5.75716 38.3678 6.50586 37.873 7.13086C37.3848 7.74935 36.7663 8.17904 36.0176 8.41992C36.0176 8.62826 36.1413 8.73242 36.3887 8.73242C36.6426 8.73242 36.9714 8.58268 37.375 8.2832ZM45.5977 6.58398C45.6497 6.63607 45.7311 6.66211 45.8418 6.66211C45.9525 6.66211 46.0469 6.63932 46.125 6.59375C45.9557 5.60417 45.8418 5.01823 45.7832 4.83594C45.7116 4.64714 45.6042 4.55273 45.4609 4.55273C45.3958 4.55273 45.3177 4.57227 45.2266 4.61133L45.5977 6.58398ZM43.6641 9.51367C43.599 9.60482 43.5664 9.68945 43.5664 9.76758C43.5664 9.95638 43.7422 10.1159 44.0938 10.2461C44.4518 10.3698 44.8848 10.4479 45.3926 10.4805C45.4772 11.418 45.5684 11.9518 45.666 12.082C45.5423 12.3229 45.2005 12.5671 44.6406 12.8145C44.0807 13.0553 43.4492 13.1758 42.7461 13.1758C41.8151 13.1758 41.0176 12.9772 40.3535 12.5801C39.6895 12.1764 39.3574 11.6589 39.3574 11.0273C39.3574 10.8581 39.3737 10.7083 39.4062 10.5781L41.4863 1.28125C42.0072 0.949219 42.6289 0.688802 43.3516 0.5C44.0742 0.311198 44.8262 0.216797 45.6074 0.216797C46.7272 0.216797 47.6842 0.405599 48.4785 0.783203C49.3835 1.21289 49.9336 1.83464 50.1289 2.64844L52.3555 11.8574C51.6784 12.7363 50.5749 13.1758 49.0449 13.1758C48.3027 13.1758 47.6745 13.0423 47.1602 12.7754C46.6458 12.5085 46.3464 12.1276 46.2617 11.6328L46.0469 10.4414C46.4375 10.4349 46.8151 10.36 47.1797 10.2168C47.5443 10.0736 47.7266 9.92383 47.7266 9.76758C47.7266 9.66341 47.6842 9.57878 47.5996 9.51367C47.3522 9.68945 47.0495 9.82292 46.6914 9.91406C46.3333 10.0052 46.0013 10.0508 45.6953 10.0508C44.8164 10.0508 44.1393 9.87174 43.6641 9.51367ZM57.0527 0.402344H62.6875C62.8763 0.714844 63.0163 1.05664 63.1074 1.42773C63.1986 1.79232 63.2441 2.12109 63.2441 2.41406C63.2441 3.07161 63.1139 3.56641 62.8535 3.89844C62.5996 4.23047 62.2415 4.39648 61.7793 4.39648H57.8438C57.6029 4.39648 57.4824 4.49089 57.4824 4.67969V4.75781C57.4824 4.79688 57.4889 4.82292 57.502 4.83594H62.1699C62.2871 5.03776 62.388 5.29167 62.4727 5.59766C62.5508 5.92969 62.5898 6.22591 62.5898 6.48633C62.5898 7.26107 62.4466 7.86654 62.1602 8.30273H60.041C59.0514 8.30273 58.3809 8.3418 58.0293 8.41992C57.6777 8.49154 57.4596 8.55339 57.375 8.60547C57.2904 8.66406 57.248 8.73893 57.248 8.83008C57.248 8.92122 57.2936 8.99284 57.3848 9.04492C57.7233 8.93424 58.0781 8.85612 58.4492 8.81055C58.9375 8.76497 59.4681 8.74219 60.041 8.74219H62.7852C63.1823 9.30208 63.3809 9.97591 63.3809 10.7637C63.3809 11.2064 63.3255 11.6296 63.2148 12.0332C63.1042 12.4368 62.9382 12.7624 62.7168 13.0098H55.4023C54.5951 13.0098 53.9473 12.8145 53.459 12.4238C52.9251 12.0072 52.6582 11.3952 52.6582 10.5879V1.30078C52.6582 0.988281 53.0163 0.760417 53.7324 0.617188C54.4486 0.473958 55.5553 0.402344 57.0527 0.402344ZM69.1719 9.18164C69.1979 9.20117 69.2728 9.21094 69.3965 9.21094C69.5202 9.21094 69.6146 9.16862 69.6797 9.08398C69.7448 8.99935 69.7773 8.84961 69.7773 8.63477V8.44922C69.7773 8.20833 69.748 8.03581 69.6895 7.93164C69.6374 7.82747 69.5462 7.77539 69.416 7.77539C69.2923 7.77539 69.2077 7.78841 69.1621 7.81445C69.1686 7.84701 69.1719 7.90234 69.1719 7.98047V9.18164ZM69.1719 5.5C69.1979 5.51953 69.2728 5.5293 69.3965 5.5293C69.5202 5.5293 69.6146 5.48047 69.6797 5.38281C69.7448 5.28516 69.7773 5.12565 69.7773 4.9043V4.8457C69.7773 4.61133 69.748 4.44531 69.6895 4.34766C69.6374 4.24349 69.5462 4.19141 69.416 4.19141C69.2923 4.19141 69.2077 4.20443 69.1621 4.23047C69.1686 4.26302 69.1719 4.31836 69.1719 4.39648V5.5ZM63.8691 1.74023C63.8691 1.59049 63.9928 1.42122 64.2402 1.23242C64.7611 0.835286 65.679 0.526042 66.9941 0.304688C67.6777 0.19401 68.4297 0.138672 69.25 0.138672C71.2031 0.138672 72.681 0.516276 73.6836 1.27148C74.5625 1.93555 75.002 2.80794 75.002 3.88867C75.002 4.2793 74.9336 4.66341 74.7969 5.04102C74.6602 5.41211 74.4648 5.69206 74.2109 5.88086C73.8659 5.70508 73.5339 5.61719 73.2148 5.61719C73.0651 5.61719 72.9512 5.64648 72.873 5.70508C72.7949 5.76367 72.7559 5.87109 72.7559 6.02734C73.7129 6.06641 74.4583 6.41146 74.9922 7.0625C75.4674 7.65495 75.7051 8.39062 75.7051 9.26953C75.7051 10.6302 75.1354 11.6198 73.9961 12.2383C72.9284 12.8177 71.3203 13.1074 69.1719 13.1074C67.668 13.1074 66.5645 13.0618 65.8613 12.9707C65.1582 12.873 64.6504 12.6484 64.3379 12.2969C64.0254 11.9453 63.8691 11.4115 63.8691 10.6953V1.74023ZM82.1016 6.58398C82.1536 6.63607 82.235 6.66211 82.3457 6.66211C82.4564 6.66211 82.5508 6.63932 82.6289 6.59375C82.4596 5.60417 82.3457 5.01823 82.2871 4.83594C82.2155 4.64714 82.1081 4.55273 81.9648 4.55273C81.8997 4.55273 81.8216 4.57227 81.7305 4.61133L82.1016 6.58398ZM80.168 9.51367C80.1029 9.60482 80.0703 9.68945 80.0703 9.76758C80.0703 9.95638 80.2461 10.1159 80.5977 10.2461C80.9557 10.3698 81.3887 10.4479 81.8965 10.4805C81.9811 11.418 82.0723 11.9518 82.1699 12.082C82.0462 12.3229 81.7044 12.5671 81.1445 12.8145C80.5846 13.0553 79.9531 13.1758 79.25 13.1758C78.319 13.1758 77.5215 12.9772 76.8574 12.5801C76.1934 12.1764 75.8613 11.6589 75.8613 11.0273C75.8613 10.8581 75.8776 10.7083 75.9102 10.5781L77.9902 1.28125C78.5111 0.949219 79.1328 0.688802 79.8555 0.5C80.5781 0.311198 81.3301 0.216797 82.1113 0.216797C83.2311 0.216797 84.1882 0.405599 84.9824 0.783203C85.8874 1.21289 86.4375 1.83464 86.6328 2.64844L88.8594 11.8574C88.1823 12.7363 87.0788 13.1758 85.5488 13.1758C84.8066 13.1758 84.1784 13.0423 83.6641 12.7754C83.1497 12.5085 82.8503 12.1276 82.7656 11.6328L82.5508 10.4414C82.9414 10.4349 83.319 10.36 83.6836 10.2168C84.0482 10.0736 84.2305 9.92383 84.2305 9.76758C84.2305 9.66341 84.1882 9.57878 84.1035 9.51367C83.8561 9.68945 83.5534 9.82292 83.1953 9.91406C82.8372 10.0052 82.5052 10.0508 82.1992 10.0508C81.3203 10.0508 80.6432 9.87174 80.168 9.51367ZM94.4648 9.18164C94.4909 9.20117 94.5658 9.21094 94.6895 9.21094C94.8132 9.21094 94.9076 9.16862 94.9727 9.08398C95.0378 8.99935 95.0703 8.84961 95.0703 8.63477V8.44922C95.0703 8.20833 95.041 8.03581 94.9824 7.93164C94.9303 7.82747 94.8392 7.77539 94.709 7.77539C94.5853 7.77539 94.5007 7.78841 94.4551 7.81445C94.4616 7.84701 94.4648 7.90234 94.4648 7.98047V9.18164ZM94.4648 5.5C94.4909 5.51953 94.5658 5.5293 94.6895 5.5293C94.8132 5.5293 94.9076 5.48047 94.9727 5.38281C95.0378 5.28516 95.0703 5.12565 95.0703 4.9043V4.8457C95.0703 4.61133 95.041 4.44531 94.9824 4.34766C94.9303 4.24349 94.8392 4.19141 94.709 4.19141C94.5853 4.19141 94.5007 4.20443 94.4551 4.23047C94.4616 4.26302 94.4648 4.31836 94.4648 4.39648V5.5ZM89.1621 1.74023C89.1621 1.59049 89.2858 1.42122 89.5332 1.23242C90.054 0.835286 90.972 0.526042 92.2871 0.304688C92.9707 0.19401 93.7227 0.138672 94.543 0.138672C96.4961 0.138672 97.974 0.516276 98.9766 1.27148C99.8555 1.93555 100.295 2.80794 100.295 3.88867C100.295 4.2793 100.227 4.66341 100.09 5.04102C99.9531 5.41211 99.7578 5.69206 99.5039 5.88086C99.1589 5.70508 98.8268 5.61719 98.5078 5.61719C98.3581 5.61719 98.2441 5.64648 98.166 5.70508C98.0879 5.76367 98.0488 5.87109 98.0488 6.02734C99.0059 6.06641 99.7513 6.41146 100.285 7.0625C100.76 7.65495 100.998 8.39062 100.998 9.26953C100.998 10.6302 100.428 11.6198 99.2891 12.2383C98.2214 12.8177 96.6133 13.1074 94.4648 13.1074C92.9609 13.1074 91.8574 13.0618 91.1543 12.9707C90.4512 12.873 89.9434 12.6484 89.6309 12.2969C89.3184 11.9453 89.1621 11.4115 89.1621 10.6953V1.74023Z"
          fill="#fff"/>
</svg>
